<svg width="104" height="123" viewBox="0 0 104 123" fill="none" xmlns="http://www.w3.org/2000/svg">
<path d="M0.00030156 81.1468V37.1128C0.00030156 30.1694 3.80857 23.769 9.95527 20.3813L42.5158 2.43603C48.4095 -0.812013 55.5905 -0.812006 61.4842 2.43603L102.008 24.7699C103.883 25.8028 104.553 28.1386 103.505 29.9867C102.458 31.8346 100.09 32.4954 98.2154 31.4626L57.6903 9.12879C54.1542 7.18007 49.8458 7.18007 46.3097 9.12879L13.7491 27.0732C10.061 29.1057 7.77596 32.9467 7.77596 37.1128V81.1468C7.77596 83.264 6.03532 84.9803 3.88813 84.9803C1.74094 84.9803 0.00030156 83.264 0.00030156 81.1468Z" fill="#6D5DFB" style="fill:#6D5DFB;fill:color(display-p3 0.4275 0.3647 0.9843);fill-opacity:1;"/>
<path d="M104 41.8532L104 85.8872C104 92.8306 100.191 99.231 94.0447 102.619L61.4842 120.564C55.5905 123.812 48.4095 123.812 42.5158 120.564L1.99168 98.2301C0.117382 97.1972 -0.55276 94.8614 0.494825 93.0133C1.54241 91.1654 3.91038 90.5046 5.78459 91.5374L46.3097 113.871C49.8458 115.82 54.1542 115.82 57.6903 113.871L90.2509 95.9268C93.939 93.8943 96.224 90.0533 96.224 85.8872L96.224 41.8532C96.2241 39.736 97.9647 38.0197 100.112 38.0197C102.259 38.0197 104 39.736 104 41.8532Z" fill="#6D5DFB" style="fill:#6D5DFB;fill:color(display-p3 0.4275 0.3647 0.9843);fill-opacity:1;"/>
<path d="M43.7177 24.5155C48.9393 21.0855 55.7398 21.0855 60.9615 24.5155L78.238 35.8639C82.5669 38.7074 85.1674 43.4967 85.1674 48.6255V75.3328C85.1674 80.4617 82.5669 85.251 78.238 88.0945L60.9615 99.4429C55.7398 102.873 48.9393 102.873 43.7177 99.4429L26.4412 88.0945C22.1123 85.251 19.5118 80.4617 19.5118 75.3328V48.6255C19.5118 43.4967 22.1123 38.7074 26.4412 35.8639L43.7177 24.5155Z" fill="#362C77" style="fill:#362C77;fill:color(display-p3 0.2118 0.1725 0.4667);fill-opacity:1;"/>
</svg>
